<svg xmlns="http://www.w3.org/2000/svg" width="192" height="192" viewBox="0 0 192 192" fill="none">
<title>Yellow abstract icon</title>
<path d="M 58.50 162.94 L 42.38 162.94 L 41.38 161.94 L 38.38 161.94 L 37.62 161.06 L 36.38 160.94 L 35.62 160.06 L 34.12 159.81 L 32.62 158.06 L 31.12 157.81 L 28.62 155.06 L 27.12 154.81 L 23.94 151.62 L 23.94 150.38 L 21.94 148.62 L 21.94 147.38 L 20.94 146.62 L 20.94 145.38 L 19.94 144.62 L 19.94 143.38 L 18.94 142.62 L 18.94 141.38 L 17.94 140.62 L 17.94 138.38 L 16.94 137.62 L 16.94 134.38 L 15.94 133.62 L 15.94 122.25 L 16.94 121.50 L 16.81 119.75 L 17.94 118.50 L 17.94 116.25 L 18.94 115.50 L 18.94 113.25 L 19.94 112.50 L 19.94 111.25 L 21.94 109.50 L 21.94 108.25 L 22.94 107.50 L 22.94 106.25 L 29.12 100.06 L 30.62 99.81 L 32.12 98.06 L 33.38 97.94 L 34.12 97.06 L 35.38 96.94 L 36.12 96.06 L 37.38 95.94 L 38.38 94.94 L 40.38 94.94 L 41.38 93.94 L 46.38 93.94 L 47.38 92.94 L 52.50 92.94 L 53.50 93.94 L 58.50 93.94 L 59.25 94.81 L 61.50 94.94 L 62.25 95.81 L 63.50 95.94 L 64.50 96.94 L 66.50 96.94 L 69.25 99.81 L 70.75 100.06 L 76.94 106.25 L 76.94 107.50 L 78.94 109.25 L 78.94 110.50 L 79.94 111.25 L 79.94 112.50 L 82.94 115.25 L 82.94 116.50 L 88.25 121.81 L 89.75 122.06 L 92.25 124.81 L 94.50 124.94 L 95.50 125.94 L 97.50 125.94 L 98.50 126.94 L 102.38 126.94 L 103.38 125.94 L 105.38 125.94 L 106.12 125.06 L 107.38 124.94 L 108.12 124.06 L 109.62 123.81 L 114.94 118.50 L 114.94 117.25 L 115.94 116.50 L 115.94 115.25 L 116.94 114.50 L 116.94 35.25 L 117.94 34.50 L 117.94 28.25 L 118.94 27.50 L 118.81 25.75 L 119.94 24.50 L 119.94 22.25 L 120.94 21.50 L 120.94 20.25 L 122.94 18.50 L 122.94 17.25 L 124.94 15.50 L 124.94 14.25 L 126.12 13.06 L 127.50 12.94 L 128.25 10.94 L 129.62 10.81 L 131.12 9.06 L 132.62 8.81 L 134.12 7.06 L 135.38 6.94 L 136.38 5.94 L 138.38 5.94 L 139.12 5.06 L 141.38 4.94 L 142.38 3.94 L 154.50 3.94 L 155.50 4.94 L 158.50 4.94 L 159.25 5.81 L 160.50 5.94 L 161.25 6.81 L 162.50 6.94 L 163.25 7.81 L 164.50 7.94 L 165.25 8.81 L 166.75 9.06 L 173.94 16.25 L 173.94 17.50 L 175.94 19.25 L 175.94 20.50 L 177.06 21.75 L 176.94 23.50 L 177.94 24.25 L 177.94 141.62 L 176.94 142.38 L 176.94 143.62 L 175.94 144.38 L 175.94 145.62 L 174.94 146.38 L 174.94 147.62 L 170.94 151.38 L 170.94 152.62 L 169.75 153.81 L 168.25 154.06 L 165.75 156.81 L 164.50 156.94 L 163.75 157.81 L 162.50 157.94 L 161.75 158.81 L 160.50 158.94 L 159.75 159.81 L 158.50 159.94 L 157.50 160.94 L 154.50 160.94 L 153.50 161.94 L 143.38 161.94 L 142.38 160.94 L 140.38 160.94 L 139.38 159.94 L 137.38 159.94 L 136.62 159.06 L 135.38 158.94 L 134.62 158.06 L 133.12 157.81 L 131.62 156.06 L 130.12 155.81 L 120.62 146.06 L 119.12 145.81 L 115.62 142.06 L 114.12 141.81 L 112.62 140.06 L 111.38 139.94 L 110.38 138.94 L 108.38 138.94 L 107.38 137.94 L 104.38 137.94 L 103.38 136.94 L 97.50 136.94 L 96.50 137.94 L 93.50 137.94 L 92.50 138.94 L 90.50 138.94 L 89.75 139.81 L 88.25 140.06 L 85.75 142.81 L 84.25 143.06 L 71.75 155.81 L 70.25 156.06 L 68.75 157.81 L 67.25 158.06 L 65.75 159.81 L 64.50 159.94 L 63.75 160.81 L 62.50 160.94 L 61.50 161.94 L 59.50 161.94 L 58.50 162.94 Z" fill="#FECB25"/>
<path d="M 106.50 187.94 L 95.38 187.94 L 94.38 186.94 L 91.38 186.94 L 90.62 186.06 L 89.38 185.94 L 88.62 185.06 L 87.12 184.81 L 84.62 182.06 L 83.12 181.81 L 81.94 180.62 L 81.94 179.38 L 79.94 177.62 L 79.94 176.38 L 78.94 175.62 L 78.94 174.38 L 77.94 173.62 L 77.94 164.25 L 78.94 163.50 L 78.94 161.25 L 79.94 160.50 L 79.94 159.25 L 80.94 158.50 L 80.94 157.25 L 87.12 151.06 L 88.38 150.94 L 90.12 149.06 L 91.38 148.94 L 92.12 148.06 L 93.38 147.94 L 94.38 146.94 L 96.38 146.94 L 97.38 145.94 L 104.50 145.94 L 105.50 146.94 L 107.50 146.94 L 108.25 147.81 L 109.50 147.94 L 110.25 148.81 L 111.75 149.06 L 116.25 153.81 L 117.75 154.06 L 118.94 155.25 L 118.94 156.50 L 120.94 158.25 L 120.94 159.50 L 121.94 160.25 L 121.94 161.50 L 122.94 162.25 L 122.94 164.50 L 123.94 165.25 L 123.94 171.62 L 122.94 172.38 L 122.94 175.50 L 120.94 177.38 L 120.94 178.62 L 115.75 183.81 L 114.50 183.94 L 113.75 184.81 L 112.50 184.94 L 111.75 185.81 L 110.50 185.94 L 109.50 186.94 L 107.50 186.94 L 106.50 187.94 Z" fill="#FECB25"/>
</svg>