<svg xmlns="http://www.w3.org/2000/svg" width="128" height="128" viewBox="0 0 128 128" fill="none">
<title>Three-bar abstract icon</title>
<path d="M 34.62 104.94 L 15.12 104.81 L 13.81 103.00 L 13.81 86.88 L 14.94 85.50 L 14.81 77.88 L 15.94 76.50 L 15.81 70.88 L 16.94 69.50 L 16.81 63.88 L 17.94 62.50 L 17.81 58.88 L 18.94 57.50 L 18.81 53.88 L 19.94 52.50 L 19.94 50.25 L 21.62 49.81 L 22.38 48.94 L 24.38 48.94 L 27.38 46.94 L 29.38 46.94 L 32.38 44.94 L 34.38 44.94 L 37.38 42.94 L 39.38 42.94 L 40.38 41.94 L 41.50 41.94 L 42.06 43.12 L 40.94 44.38 L 41.06 48.00 L 39.94 49.38 L 39.94 52.62 L 38.94 53.38 L 39.06 58.00 L 37.94 59.38 L 37.94 63.62 L 36.94 64.38 L 37.06 69.00 L 35.94 70.38 L 36.06 77.00 L 34.94 78.38 L 35.06 104.00 L 34.62 104.94 Z" fill="#FFFFFF"/>
<path d="M 70.62 104.94 L 51.38 104.94 L 49.94 103.62 L 49.94 100.38 L 48.81 99.00 L 48.94 90.38 L 47.81 89.00 L 47.81 72.88 L 48.94 71.50 L 48.81 61.88 L 49.94 60.50 L 49.81 54.88 L 50.94 53.50 L 50.81 48.88 L 51.94 47.50 L 51.81 43.88 L 52.94 42.50 L 52.81 38.88 L 53.94 37.50 L 53.94 36.25 L 56.38 35.94 L 57.12 35.06 L 58.38 34.94 L 61.38 32.94 L 63.38 32.94 L 66.38 30.94 L 68.38 30.94 L 71.38 28.94 L 72.50 28.94 L 73.38 27.94 L 75.50 27.81 L 75.94 28.62 L 74.94 29.50 L 74.94 32.62 L 73.94 33.38 L 73.94 37.62 L 72.94 38.38 L 72.94 42.62 L 71.94 43.38 L 71.94 47.62 L 70.94 48.38 L 71.06 54.00 L 69.94 55.38 L 69.94 61.62 L 68.94 62.38 L 69.06 75.00 L 67.94 76.38 L 67.94 81.50 L 69.06 82.88 L 68.94 93.50 L 69.94 94.25 L 69.94 99.50 L 71.06 100.88 L 71.06 104.00 L 70.62 104.94 Z" fill="#FFFFFF"/>
<path d="M 109.62 104.94 L 88.12 104.81 L 86.94 103.62 L 86.94 101.38 L 85.81 100.00 L 85.94 97.38 L 84.81 96.00 L 84.94 93.38 L 83.94 92.62 L 83.94 88.38 L 82.81 87.00 L 82.94 79.38 L 81.81 78.00 L 81.81 55.88 L 82.94 54.50 L 82.81 45.88 L 83.94 44.50 L 83.81 38.88 L 84.94 37.50 L 84.81 33.88 L 85.94 32.50 L 85.81 28.88 L 86.94 27.50 L 86.94 23.25 L 88.12 22.06 L 89.38 21.94 L 90.38 20.94 L 92.38 20.94 L 95.38 18.94 L 97.38 18.94 L 100.38 16.94 L 102.38 16.94 L 105.38 14.94 L 106.50 14.94 L 107.38 13.94 L 109.00 13.81 L 109.75 13.94 L 109.94 14.62 L 108.94 15.50 L 108.94 17.62 L 107.94 18.38 L 108.06 22.00 L 106.94 23.38 L 107.06 27.00 L 105.94 28.38 L 105.94 32.62 L 104.94 33.38 L 105.06 38.00 L 103.94 39.38 L 104.06 45.00 L 102.94 46.38 L 103.06 54.00 L 101.94 55.38 L 101.94 73.50 L 103.06 74.88 L 102.94 81.50 L 103.94 82.25 L 103.94 86.50 L 104.94 87.25 L 104.94 90.50 L 106.06 91.88 L 105.94 94.50 L 106.94 95.25 L 106.94 96.50 L 108.06 97.75 L 107.94 99.50 L 108.94 100.25 L 108.94 101.50 L 109.94 102.25 L 109.62 104.94 Z" fill="#FFFFFF"/>
</svg>