<svg xmlns="http://www.w3.org/2000/svg" width="400" height="400" viewBox="0 0 400 400" fill="none">
<title>Blue abstract M icon</title>
<path d="M 300.0 310.5 L 274.0 306.5 L 261.0 298.5 L 250.5 287.0 L 200.0 166.5 L 197.5 168.0 L 189.5 187.0 L 153.5 278.0 L 138.0 298.5 L 119.0 308.5 L 99.0 310.5 L 77.0 303.5 L 63.5 292.0 L 53.5 274.0 L 51.5 263.0 L 52.5 248.0 L 106.5 112.0 L 120.0 95.5 L 138.0 88.5 L 151.0 89.5 L 162.0 94.5 L 175.5 109.0 L 199.0 158.5 L 223.5 109.0 L 240.0 92.5 L 253.0 88.5 L 266.0 89.5 L 279.0 95.5 L 288.5 105.0 L 343.5 239.0 L 347.5 254.0 L 345.5 274.0 L 335.5 292.0 L 322.0 303.5 L 300.0 310.5 Z" fill="#0057FF"/>
</svg>