<svg xmlns="http://www.w3.org/2000/svg" viewBox="0 0 1024 1024" role="img" aria-labelledby="title desc">
  <title id="title">Stake unknown icon</title>
  <desc id="desc">Vector icon with a coin stack and question mark, transparent background.</desc>
  <path fill="#ffffff" fill-rule="evenodd" clip-rule="evenodd" d="M 486 35 L 485 36 L 473 36 L 472 37 L 463 37 L 462 38 L 454 38 L 453 39 L 439 40 L 438 41 L 433 41 L 432 42 L 428 42 L 427 43 L 423 43 L 422 44 L 418 44 L 417 45 L 413 45 L 412 46 L 409 46 L 404 48 L 396 49 L 392 51 L 389 51 L 385 53 L 378 54 L 377 55 L 375 55 L 368 58 L 365 58 L 362 60 L 348 64 L 345 66 L 340 67 L 330 72 L 323 74 L 312 80 L 310 80 L 274 99 L 259 109 L 256 110 L 244 118 L 241 121 L 237 123 L 234 126 L 230 128 L 213 142 L 212 142 L 200 153 L 199 153 L 161 190 L 161 191 L 153 199 L 153 200 L 147 206 L 147 207 L 135 221 L 109 258 L 86 299 L 86 301 L 78 316 L 78 318 L 74 325 L 74 327 L 70 335 L 69 340 L 65 348 L 65 350 L 57 372 L 57 375 L 55 379 L 53 390 L 51 394 L 51 398 L 50 399 L 50 402 L 48 407 L 48 411 L 47 412 L 47 416 L 46 417 L 46 421 L 45 422 L 43 440 L 42 441 L 41 458 L 40 459 L 40 471 L 39 472 L 39 492 L 38 493 L 39 535 L 40 536 L 40 547 L 41 548 L 41 557 L 42 558 L 43 572 L 44 573 L 45 584 L 46 585 L 48 599 L 50 604 L 50 608 L 51 609 L 54 624 L 56 628 L 56 631 L 58 635 L 58 638 L 59 639 L 63 653 L 65 656 L 68 667 L 70 670 L 72 677 L 75 682 L 75 684 L 78 689 L 78 691 L 99 732 L 101 734 L 108 747 L 125 772 L 137 788 L 141 792 L 144 797 L 150 803 L 156 811 L 166 821 L 166 822 L 198 853 L 199 853 L 216 868 L 240 886 L 271 906 L 276 908 L 285 914 L 317 930 L 319 930 L 324 933 L 326 933 L 331 936 L 333 936 L 341 940 L 346 941 L 349 943 L 360 946 L 363 948 L 365 948 L 369 950 L 372 950 L 379 953 L 386 954 L 390 956 L 393 956 L 394 957 L 409 960 L 410 961 L 414 961 L 415 962 L 419 962 L 420 963 L 424 963 L 425 964 L 429 964 L 430 965 L 435 965 L 436 966 L 441 966 L 442 967 L 448 967 L 449 968 L 465 969 L 466 970 L 478 970 L 479 971 L 500 971 L 501 972 L 545 971 L 546 970 L 557 970 L 558 969 L 566 969 L 567 968 L 581 967 L 582 966 L 593 965 L 594 964 L 598 964 L 599 963 L 603 963 L 604 962 L 608 962 L 609 961 L 613 961 L 618 959 L 622 959 L 623 958 L 630 957 L 634 955 L 641 954 L 648 951 L 651 951 L 652 950 L 669 945 L 672 943 L 677 942 L 680 940 L 682 940 L 685 938 L 687 938 L 690 936 L 697 934 L 719 923 L 721 923 L 759 902 L 797 876 L 801 872 L 817 860 L 834 844 L 835 844 L 868 810 L 868 809 L 879 797 L 879 796 L 883 792 L 883 791 L 887 787 L 899 771 L 921 737 L 942 697 L 942 695 L 946 688 L 946 686 L 949 681 L 949 679 L 952 674 L 953 669 L 955 666 L 956 661 L 958 658 L 958 656 L 965 637 L 965 634 L 968 627 L 968 624 L 969 623 L 969 620 L 970 619 L 970 616 L 971 615 L 971 612 L 972 611 L 972 608 L 974 603 L 974 599 L 975 598 L 975 594 L 976 593 L 976 589 L 977 588 L 978 578 L 979 577 L 979 571 L 980 570 L 980 564 L 981 563 L 981 556 L 982 555 L 982 546 L 983 545 L 983 532 L 984 531 L 984 476 L 983 475 L 983 462 L 982 461 L 981 443 L 980 442 L 980 436 L 979 435 L 979 430 L 978 429 L 978 424 L 977 423 L 977 418 L 976 417 L 975 408 L 973 403 L 973 399 L 972 398 L 971 391 L 969 387 L 968 380 L 966 376 L 966 373 L 963 366 L 962 360 L 960 357 L 956 343 L 954 340 L 954 338 L 952 335 L 952 333 L 950 330 L 948 323 L 944 316 L 944 314 L 923 273 L 921 271 L 914 258 L 897 233 L 876 207 L 876 206 L 861 190 L 861 189 L 822 151 L 821 151 L 810 141 L 809 141 L 805 137 L 789 125 L 756 103 L 751 101 L 749 99 L 737 93 L 735 91 L 709 78 L 707 78 L 700 74 L 698 74 L 693 71 L 691 71 L 678 65 L 673 64 L 670 62 L 668 62 L 649 55 L 639 53 L 635 51 L 632 51 L 631 50 L 628 50 L 627 49 L 624 49 L 623 48 L 620 48 L 615 46 L 611 46 L 606 44 L 596 43 L 595 42 L 591 42 L 590 41 L 585 41 L 584 40 L 578 40 L 577 39 L 571 39 L 570 38 L 562 38 L 561 37 L 551 37 L 550 36 L 536 36 L 535 35 Z M 496 66 L 528 66 L 529 67 L 544 67 L 545 68 L 556 68 L 557 69 L 572 70 L 573 71 L 585 72 L 586 73 L 591 73 L 596 75 L 601 75 L 606 77 L 610 77 L 611 78 L 622 80 L 626 82 L 633 83 L 640 86 L 643 86 L 644 87 L 655 90 L 658 92 L 666 94 L 669 96 L 671 96 L 674 98 L 681 100 L 695 107 L 697 107 L 730 124 L 732 126 L 745 133 L 766 147 L 786 162 L 804 178 L 805 178 L 818 191 L 819 191 L 842 215 L 842 216 L 848 222 L 848 223 L 865 243 L 873 255 L 876 258 L 884 270 L 885 273 L 891 281 L 893 286 L 899 295 L 910 316 L 910 318 L 917 331 L 917 333 L 920 338 L 920 340 L 926 353 L 927 358 L 929 361 L 929 363 L 934 376 L 934 379 L 937 386 L 938 393 L 940 397 L 941 405 L 942 406 L 942 409 L 944 414 L 944 418 L 945 419 L 945 423 L 946 424 L 948 441 L 949 442 L 949 449 L 950 450 L 950 457 L 951 458 L 951 467 L 952 468 L 952 484 L 953 485 L 953 522 L 952 523 L 952 539 L 951 540 L 951 550 L 950 551 L 949 565 L 948 566 L 948 571 L 947 572 L 947 577 L 946 578 L 946 583 L 945 584 L 944 593 L 942 598 L 942 602 L 941 603 L 939 614 L 937 618 L 937 621 L 935 625 L 935 628 L 934 629 L 928 649 L 926 652 L 925 657 L 923 660 L 921 667 L 918 672 L 918 674 L 912 685 L 912 687 L 904 703 L 902 705 L 899 712 L 897 714 L 889 729 L 861 769 L 845 787 L 845 788 L 837 796 L 837 797 L 802 831 L 801 831 L 789 842 L 788 842 L 784 846 L 768 858 L 761 862 L 752 869 L 749 870 L 744 874 L 741 875 L 729 883 L 698 899 L 696 899 L 687 904 L 685 904 L 680 907 L 678 907 L 670 911 L 665 912 L 662 914 L 660 914 L 638 922 L 628 924 L 624 926 L 621 926 L 616 928 L 612 928 L 611 929 L 608 929 L 603 931 L 594 932 L 593 933 L 576 935 L 575 936 L 568 936 L 567 937 L 560 937 L 559 938 L 549 938 L 548 939 L 536 939 L 535 940 L 490 940 L 489 939 L 474 939 L 473 938 L 465 938 L 464 937 L 456 937 L 455 936 L 442 935 L 441 934 L 430 933 L 429 932 L 420 931 L 415 929 L 411 929 L 410 928 L 395 925 L 391 923 L 388 923 L 387 922 L 361 914 L 358 912 L 353 911 L 350 909 L 343 907 L 338 904 L 336 904 L 327 899 L 325 899 L 289 880 L 251 855 L 234 841 L 233 841 L 222 831 L 221 831 L 186 797 L 186 796 L 177 787 L 177 786 L 171 780 L 171 779 L 159 765 L 134 729 L 126 714 L 124 712 L 121 705 L 119 703 L 109 683 L 109 681 L 105 674 L 105 672 L 102 667 L 102 665 L 98 657 L 97 652 L 95 649 L 95 647 L 87 625 L 85 615 L 83 611 L 83 608 L 81 603 L 81 599 L 79 594 L 79 590 L 78 589 L 78 585 L 77 584 L 76 574 L 75 573 L 75 567 L 74 566 L 74 560 L 73 559 L 73 552 L 72 551 L 72 543 L 71 542 L 71 529 L 70 528 L 70 479 L 71 478 L 71 466 L 72 465 L 72 456 L 73 455 L 74 440 L 75 439 L 76 428 L 77 427 L 79 413 L 81 408 L 81 404 L 82 403 L 83 396 L 85 392 L 86 385 L 89 378 L 89 375 L 90 374 L 91 369 L 93 366 L 96 355 L 98 352 L 98 350 L 100 347 L 100 345 L 104 337 L 104 335 L 108 328 L 108 326 L 126 291 L 128 289 L 135 276 L 154 248 L 158 244 L 161 239 L 174 224 L 174 223 L 180 217 L 180 216 L 192 204 L 192 203 L 217 179 L 218 179 L 236 163 L 256 148 L 277 134 L 290 127 L 292 125 L 331 105 L 333 105 L 340 101 L 342 101 L 355 95 L 360 94 L 363 92 L 365 92 L 384 85 L 387 85 L 391 83 L 394 83 L 398 81 L 401 81 L 402 80 L 405 80 L 406 79 L 409 79 L 414 77 L 418 77 L 419 76 L 428 75 L 429 74 L 433 74 L 434 73 L 439 73 L 440 72 L 445 72 L 446 71 L 451 71 L 452 70 L 459 70 L 460 69 L 467 69 L 468 68 L 479 68 L 480 67 L 495 67 Z M 261 497 L 261 507 L 266 516 L 277 526 L 299 538 L 301 538 L 309 542 L 311 542 L 324 547 L 327 547 L 334 550 L 337 550 L 338 551 L 341 551 L 342 552 L 345 552 L 350 554 L 354 554 L 355 555 L 359 555 L 360 556 L 364 556 L 365 557 L 369 557 L 370 558 L 374 558 L 375 559 L 395 561 L 396 562 L 412 563 L 413 564 L 421 564 L 422 565 L 432 565 L 433 566 L 448 566 L 449 567 L 475 567 L 476 568 L 509 568 L 510 567 L 536 567 L 537 566 L 552 566 L 553 565 L 563 565 L 564 564 L 574 564 L 575 563 L 591 562 L 592 561 L 598 561 L 599 560 L 604 560 L 605 559 L 611 559 L 612 558 L 616 558 L 617 557 L 621 557 L 622 556 L 636 554 L 637 553 L 652 550 L 656 548 L 659 548 L 660 547 L 677 542 L 680 540 L 682 540 L 689 536 L 691 536 L 695 534 L 697 532 L 707 527 L 715 521 L 719 517 L 723 511 L 725 506 L 725 497 L 723 492 L 711 479 L 702 473 L 676 461 L 674 461 L 661 456 L 658 456 L 654 454 L 651 454 L 650 453 L 647 453 L 646 452 L 643 452 L 642 451 L 639 451 L 634 449 L 630 449 L 625 447 L 621 447 L 620 446 L 615 446 L 614 445 L 609 445 L 608 444 L 602 444 L 601 443 L 596 443 L 595 442 L 589 442 L 588 441 L 572 440 L 571 439 L 562 439 L 561 438 L 550 438 L 549 437 L 539 437 L 538 439 L 538 451 L 536 456 L 475 456 L 473 454 L 473 436 L 451 436 L 450 437 L 436 437 L 435 438 L 414 439 L 413 440 L 405 440 L 404 441 L 397 441 L 396 442 L 383 443 L 382 444 L 378 444 L 377 445 L 372 445 L 371 446 L 367 446 L 366 447 L 352 449 L 351 450 L 348 450 L 347 451 L 332 454 L 325 457 L 322 457 L 321 458 L 310 461 L 282 474 L 268 485 L 268 486 L 264 490 Z M 259 538 L 260 539 L 259 540 L 260 541 L 260 543 L 259 544 L 259 584 L 260 585 L 260 590 L 264 598 L 272 607 L 285 616 L 301 624 L 303 624 L 306 626 L 311 627 L 314 629 L 316 629 L 326 633 L 329 633 L 333 635 L 336 635 L 337 636 L 340 636 L 341 637 L 344 637 L 345 638 L 348 638 L 353 640 L 357 640 L 362 642 L 372 643 L 373 644 L 383 645 L 384 646 L 389 646 L 390 647 L 405 648 L 406 649 L 414 649 L 415 650 L 423 650 L 424 651 L 436 651 L 437 652 L 452 652 L 453 653 L 505 654 L 506 653 L 533 653 L 534 652 L 562 651 L 563 650 L 572 650 L 573 649 L 581 649 L 582 648 L 589 648 L 590 647 L 596 647 L 597 646 L 602 646 L 603 645 L 609 645 L 610 644 L 620 643 L 621 642 L 625 642 L 630 640 L 634 640 L 635 639 L 650 636 L 654 634 L 657 634 L 658 633 L 675 628 L 685 623 L 687 623 L 699 617 L 711 609 L 720 600 L 725 591 L 725 539 L 711 552 L 694 562 L 692 562 L 685 566 L 683 566 L 680 568 L 675 569 L 672 571 L 670 571 L 666 573 L 663 573 L 656 576 L 653 576 L 652 577 L 649 577 L 645 579 L 637 580 L 632 582 L 628 582 L 627 583 L 623 583 L 622 584 L 618 584 L 617 585 L 612 585 L 611 586 L 607 586 L 606 587 L 601 587 L 600 588 L 586 589 L 585 590 L 577 590 L 576 591 L 568 591 L 567 592 L 557 592 L 556 593 L 524 594 L 523 595 L 462 595 L 461 594 L 431 593 L 430 592 L 420 592 L 419 591 L 410 591 L 409 590 L 394 589 L 393 588 L 387 588 L 386 587 L 380 587 L 379 586 L 374 586 L 373 585 L 369 585 L 368 584 L 363 584 L 362 583 L 358 583 L 353 581 L 349 581 L 348 580 L 333 577 L 329 575 L 326 575 L 325 574 L 323 574 L 319 572 L 316 572 L 313 570 L 308 569 L 282 557 L 270 549 L 260 539 L 260 538 Z M 786 642 L 776 652 L 763 661 L 745 670 L 743 670 L 732 675 L 730 675 L 726 677 L 723 677 L 716 680 L 713 680 L 709 682 L 706 682 L 705 683 L 702 683 L 701 684 L 698 684 L 693 686 L 689 686 L 688 687 L 684 687 L 683 688 L 679 688 L 678 689 L 673 689 L 672 690 L 668 690 L 667 691 L 662 691 L 661 692 L 655 692 L 654 693 L 648 693 L 647 694 L 640 694 L 639 695 L 630 695 L 629 696 L 619 696 L 618 697 L 591 698 L 590 699 L 529 699 L 528 698 L 511 698 L 510 697 L 497 697 L 496 696 L 486 696 L 485 695 L 468 694 L 467 693 L 461 693 L 460 692 L 454 692 L 453 691 L 447 691 L 446 690 L 435 689 L 434 688 L 430 688 L 429 687 L 425 687 L 424 686 L 420 686 L 415 684 L 411 684 L 410 683 L 399 681 L 395 679 L 385 677 L 384 676 L 376 674 L 373 672 L 368 671 L 345 660 L 332 651 L 328 647 L 324 646 L 324 690 L 325 691 L 326 696 L 331 704 L 342 714 L 348 718 L 353 720 L 355 722 L 361 725 L 363 725 L 370 729 L 375 730 L 378 732 L 380 732 L 396 738 L 399 738 L 403 740 L 406 740 L 407 741 L 410 741 L 411 742 L 414 742 L 419 744 L 423 744 L 428 746 L 438 747 L 439 748 L 449 749 L 450 750 L 455 750 L 456 751 L 462 751 L 463 752 L 479 753 L 480 754 L 488 754 L 489 755 L 499 755 L 500 756 L 513 756 L 514 757 L 570 758 L 571 757 L 596 757 L 597 756 L 623 755 L 624 754 L 632 754 L 633 753 L 640 753 L 641 752 L 648 752 L 649 751 L 655 751 L 656 750 L 673 748 L 674 747 L 683 746 L 688 744 L 692 744 L 693 743 L 708 740 L 715 737 L 718 737 L 719 736 L 730 733 L 733 731 L 735 731 L 743 727 L 745 727 L 757 721 L 759 719 L 768 714 L 779 704 L 783 698 L 785 693 L 785 682 L 786 681 L 786 679 L 785 678 L 786 648 L 785 646 L 786 645 Z M 463 255 L 458 258 L 456 258 L 443 266 L 430 279 L 426 285 L 420 297 L 420 299 L 417 306 L 417 309 L 415 314 L 415 318 L 414 319 L 414 323 L 413 324 L 413 331 L 415 331 L 416 332 L 422 332 L 423 333 L 437 334 L 438 335 L 452 336 L 453 337 L 469 338 L 470 327 L 471 326 L 471 323 L 472 322 L 474 314 L 480 305 L 486 300 L 492 297 L 495 297 L 500 295 L 515 295 L 516 296 L 519 296 L 520 297 L 525 298 L 530 301 L 538 310 L 541 318 L 541 332 L 540 333 L 540 336 L 538 339 L 537 343 L 531 352 L 525 358 L 525 359 L 498 385 L 498 386 L 491 394 L 490 397 L 487 401 L 487 403 L 483 411 L 483 414 L 481 419 L 481 425 L 480 426 L 480 445 L 481 446 L 480 447 L 481 448 L 530 448 L 530 446 L 531 445 L 531 435 L 532 434 L 532 430 L 537 418 L 541 412 L 580 374 L 588 363 L 594 351 L 594 349 L 596 345 L 596 342 L 597 341 L 597 337 L 598 336 L 598 328 L 599 327 L 598 310 L 597 309 L 597 305 L 596 304 L 596 301 L 595 300 L 594 295 L 586 280 L 574 267 L 567 262 L 550 254 L 547 254 L 546 253 L 539 252 L 538 251 L 534 251 L 533 250 L 526 250 L 525 249 L 491 249 L 490 250 L 483 250 L 482 251 L 478 251 L 477 252 L 474 252 L 473 253 Z M 785 620 L 784 619 L 784 615 L 781 609 L 775 602 L 761 592 L 739 582 L 739 591 L 735 602 L 731 608 L 719 620 L 709 627 L 704 629 L 702 631 L 696 634 L 694 634 L 687 638 L 674 642 L 671 644 L 665 645 L 658 648 L 651 649 L 647 651 L 644 651 L 639 653 L 635 653 L 634 654 L 630 654 L 629 655 L 625 655 L 624 656 L 620 656 L 619 657 L 614 657 L 613 658 L 602 659 L 601 660 L 595 660 L 594 661 L 588 661 L 587 662 L 579 662 L 578 663 L 570 663 L 569 664 L 559 664 L 558 665 L 546 665 L 545 666 L 530 666 L 529 667 L 459 667 L 458 666 L 441 666 L 440 665 L 428 665 L 427 664 L 408 663 L 407 662 L 400 662 L 399 661 L 385 660 L 384 659 L 379 659 L 378 658 L 374 658 L 373 657 L 368 657 L 367 656 L 363 656 L 362 655 L 354 654 L 360 657 L 362 657 L 369 661 L 374 662 L 377 664 L 379 664 L 389 668 L 392 668 L 399 671 L 414 674 L 415 675 L 419 675 L 424 677 L 434 678 L 435 679 L 439 679 L 440 680 L 446 680 L 447 681 L 459 682 L 460 683 L 467 683 L 468 684 L 475 684 L 476 685 L 483 685 L 484 686 L 506 687 L 507 688 L 525 688 L 526 689 L 592 689 L 593 688 L 622 687 L 623 686 L 641 685 L 642 684 L 648 684 L 649 683 L 655 683 L 656 682 L 662 682 L 663 681 L 668 681 L 669 680 L 673 680 L 674 679 L 684 678 L 689 676 L 693 676 L 694 675 L 705 673 L 716 669 L 719 669 L 720 668 L 731 665 L 734 663 L 739 662 L 758 653 L 770 645 L 782 632 L 784 627 Z M 471 470 L 472 469 L 540 469 L 541 470 L 541 537 L 540 538 L 473 538 L 471 536 Z M 263 526 L 268 534 L 274 540 L 289 550 L 309 559 L 311 559 L 330 566 L 333 566 L 337 568 L 340 568 L 345 570 L 349 570 L 350 571 L 353 571 L 358 573 L 368 574 L 369 575 L 379 576 L 380 577 L 392 578 L 393 579 L 409 580 L 410 581 L 417 581 L 418 582 L 427 582 L 428 583 L 461 584 L 462 585 L 525 585 L 526 584 L 544 584 L 545 583 L 557 583 L 558 582 L 568 582 L 569 581 L 585 580 L 586 579 L 599 578 L 600 577 L 605 577 L 606 576 L 611 576 L 612 575 L 617 575 L 618 574 L 627 573 L 628 572 L 631 572 L 632 571 L 640 570 L 641 569 L 648 568 L 652 566 L 655 566 L 656 565 L 676 559 L 688 553 L 690 553 L 696 549 L 701 547 L 711 540 L 718 533 L 722 527 L 715 533 L 706 538 L 704 540 L 683 550 L 681 550 L 675 553 L 673 553 L 666 556 L 663 556 L 656 559 L 653 559 L 652 560 L 649 560 L 648 561 L 645 561 L 644 562 L 641 562 L 636 564 L 622 566 L 621 567 L 616 567 L 615 568 L 610 568 L 609 569 L 604 569 L 603 570 L 598 570 L 597 571 L 591 571 L 590 572 L 582 572 L 581 573 L 574 573 L 573 574 L 563 574 L 562 575 L 550 575 L 549 576 L 533 576 L 532 577 L 454 577 L 453 576 L 437 576 L 436 575 L 413 574 L 412 573 L 404 573 L 403 572 L 396 572 L 395 571 L 382 570 L 381 569 L 370 568 L 369 567 L 365 567 L 364 566 L 350 564 L 349 563 L 346 563 L 345 562 L 330 559 L 326 557 L 323 557 L 322 556 L 308 552 L 305 550 L 303 550 L 295 546 L 293 546 L 278 538 L 268 531 Z M 479 477 L 479 530 L 481 529 L 483 529 L 484 530 L 489 530 L 490 529 L 533 529 L 533 480 L 534 479 L 534 477 Z"/>
</svg>
