<svg xmlns="http://www.w3.org/2000/svg" viewBox="134 260 785 505" role="img" aria-labelledby="title desc">
  <title id="title">Old big once locked stakes icon</title>
  <desc id="desc">Transparent SVG icon traced and cleaned from the original raster image.</desc>
  <path fill="#343A40" fill-rule="evenodd" d="
      M450 581 L428 566 L413 562 L393 562 L371 570 L280 623 L269 633 L262 643 L256 658 L254 670 L257 694 L269 717 L285 731 L303 739 L315 741 L337 739 L354 732 L440 682 L455 667 L439 672 L415 672 L398 667 L337 703 L318 707 L307 704 L294 693 L289 680 L289 669 L294 657 L302 649 L392 597 L399 595 L412 596 L425 604 L429 610 L438 608 L459 598 L460 596 Z
      M495 518 L487 531 L476 541 L446 558 L454 561 L486 543 L495 532 Z
      M159 518 L159 576 L161 585 L167 596 L179 608 L193 617 L213 626 L248 635 L257 622 L269 611 L328 577 L302 577 L271 574 L222 563 L185 546 L165 529 Z
      M590 514 L584 510 L573 512 L559 537 L540 564 L529 576 L517 585 L466 611 L436 624 L419 624 L403 615 L392 617 L386 623 L384 629 L387 641 L398 650 L409 655 L418 657 L437 657 L473 643 L533 612 L556 592 L564 580 L592 527 L593 521 Z
      M543 473 L528 467 L510 463 L510 485 L529 490 L535 496 L536 503 L524 524 L504 546 L461 569 L475 590 L504 576 L521 565 L529 557 L552 524 L559 505 L558 492 L554 483 Z
      M645 451 L637 462 L619 510 L599 556 L595 570 L594 588 L597 604 L606 624 L612 632 L628 647 L651 660 L686 672 L724 679 L760 681 L783 678 L803 672 L828 657 L843 641 L854 621 L880 539 L880 525 L870 509 L857 496 L838 487 L668 447 L653 447 Z
      M729 509 L740 513 L748 520 L752 528 L753 539 L748 551 L740 559 L732 562 L728 607 L723 608 L685 598 L683 595 L706 554 L700 543 L701 527 L705 520 L713 513 L719 510 Z
      M158 438 L159 493 L166 508 L182 523 L206 536 L238 547 L271 554 L297 557 L338 558 L363 556 L375 550 L391 546 L420 546 L448 536 L473 522 L487 509 L495 493 L495 440 L490 449 L471 466 L448 478 L427 486 L373 497 L352 499 L302 499 L246 491 L206 478 L175 460 L164 449 Z
      M158 368 L159 416 L166 429 L176 439 L189 448 L215 460 L245 469 L286 476 L317 478 L368 476 L390 473 L428 464 L449 456 L467 447 L478 439 L490 426 L496 410 L496 368 L491 376 L477 389 L446 405 L408 416 L358 423 L285 422 L230 412 L208 405 L182 392 L171 384 Z
      M752 333 L733 351 L724 364 L693 438 L735 448 L756 395 L766 378 L778 366 L792 358 L803 355 L822 356 L838 364 L846 373 L851 385 L850 406 L825 469 L850 475 L866 486 L888 433 L894 410 L895 395 L893 379 L887 361 L880 349 L865 333 L855 326 L837 318 L823 315 L805 314 L782 318 L767 324 Z
      M158 346 L159 354 L165 365 L178 377 L200 389 L222 397 L256 405 L311 411 L372 409 L405 404 L433 397 L455 389 L477 377 L490 365 L496 353 L496 341 L490 329 L481 320 L469 312 L452 304 L428 296 L401 290 L344 284 L284 286 L224 297 L192 309 L174 320 L161 335 Z
      M248 326 L252 322 L276 309 L404 309 L405 312 L402 315 L378 328 L291 328 L287 333 L289 336 L293 337 L380 337 L406 352 L406 367 L379 384 L250 384 L249 381 L253 377 L277 364 L367 364 L369 360 L365 356 L275 356 L249 341 Z
  "/>
</svg>
