<svg xmlns="http://www.w3.org/2000/svg" width="400" height="400" viewBox="0 0 400 400" fill="none">
<title>Orange geometric V mark</title>
<path d="M 204.62 305.94 L 203.50 304.94 L 202.50 305.94 L 196.12 305.81 L 194.62 304.06 L 193.12 303.81 L 190.94 301.62 L 190.94 300.38 L 188.94 298.62 L 188.94 297.38 L 186.94 295.62 L 186.94 293.38 L 184.94 291.62 L 184.94 290.38 L 183.94 289.62 L 183.94 288.38 L 182.94 287.62 L 182.94 286.38 L 180.94 284.75 L 180.94 284.25 L 181.81 283.75 L 181.81 283.12 L 178.94 280.62 L 178.94 278.38 L 178.50 277.94 L 176.94 277.62 L 176.94 276.38 L 175.81 275.12 L 175.94 273.38 L 175.50 272.94 L 173.94 272.62 L 173.94 270.38 L 171.94 268.62 L 171.94 267.38 L 169.94 265.62 L 169.94 264.38 L 168.94 263.62 L 168.94 261.38 L 167.94 260.62 L 167.94 259.38 L 167.50 258.94 L 166.38 259.06 L 165.94 258.75 L 166.94 257.25 L 165.12 256.81 L 163.94 255.62 L 163.94 253.38 L 162.94 252.62 L 162.94 251.38 L 160.94 249.62 L 160.94 248.38 L 158.94 246.75 L 158.94 246.25 L 159.94 245.50 L 158.94 244.50 L 158.94 243.38 L 158.50 242.94 L 157.12 242.81 L 155.94 241.62 L 155.94 240.38 L 154.94 239.62 L 154.94 238.38 L 153.94 237.62 L 153.94 235.38 L 150.94 232.62 L 150.94 231.38 L 149.94 230.62 L 149.94 228.38 L 146.94 225.62 L 146.94 223.38 L 143.94 220.75 L 143.94 220.25 L 144.75 219.81 L 144.94 219.25 L 142.94 218.62 L 142.94 217.38 L 141.94 216.62 L 141.94 215.38 L 139.94 213.62 L 139.94 212.38 L 138.94 211.62 L 138.94 210.38 L 137.94 209.62 L 137.94 208.38 L 135.94 206.62 L 135.94 205.38 L 134.94 204.62 L 134.94 203.38 L 132.94 201.62 L 132.94 200.38 L 131.94 199.62 L 131.94 198.38 L 129.94 196.62 L 129.94 195.38 L 128.94 194.62 L 128.94 193.38 L 127.94 192.62 L 127.94 191.38 L 126.94 190.62 L 126.94 189.38 L 124.94 187.62 L 124.94 186.38 L 123.94 185.62 L 123.94 184.38 L 121.94 182.75 L 122.06 182.12 L 122.94 181.50 L 122.62 180.94 L 121.38 181.06 L 120.94 180.75 L 121.94 179.25 L 121.62 178.94 L 120.25 178.94 L 119.81 178.12 L 119.94 176.38 L 119.50 175.94 L 117.94 175.62 L 117.94 173.38 L 116.94 172.62 L 116.94 171.38 L 113.94 168.62 L 113.94 167.38 L 112.94 166.62 L 112.94 165.38 L 111.94 164.62 L 111.94 162.38 L 111.50 161.94 L 109.94 161.62 L 109.94 160.38 L 108.94 159.62 L 108.94 158.38 L 106.94 156.62 L 106.94 155.38 L 105.94 154.62 L 105.94 153.38 L 104.94 152.62 L 104.94 151.38 L 102.94 149.62 L 102.94 148.38 L 101.94 147.62 L 101.94 146.38 L 100.94 145.62 L 100.94 144.38 L 99.94 143.62 L 99.94 142.38 L 98.94 141.62 L 98.94 140.38 L 95.94 137.62 L 95.94 135.38 L 94.94 134.62 L 94.94 133.38 L 93.94 132.62 L 93.94 131.38 L 93.50 130.94 L 92.38 131.06 L 91.94 130.75 L 92.94 129.25 L 90.94 128.62 L 90.94 127.38 L 89.94 126.62 L 89.94 125.38 L 87.94 123.62 L 87.94 122.38 L 86.94 121.62 L 86.94 120.38 L 85.94 119.62 L 85.94 117.38 L 84.94 116.62 L 84.94 115.38 L 84.50 114.94 L 82.94 114.62 L 82.94 112.38 L 82.50 111.94 L 80.94 111.62 L 80.94 110.38 L 79.94 109.62 L 79.81 109.00 L 79.94 106.38 L 78.94 105.62 L 78.94 102.25 L 80.94 100.50 L 80.94 99.38 L 81.94 98.62 L 81.81 98.12 L 80.94 97.62 L 80.94 97.12 L 82.25 95.94 L 83.38 96.94 L 83.75 96.81 L 84.94 95.50 L 84.81 94.25 L 85.12 93.94 L 85.62 93.94 L 86.62 94.94 L 88.38 92.94 L 90.50 92.94 L 91.50 93.94 L 100.38 93.94 L 101.38 92.94 L 103.50 92.94 L 104.38 93.94 L 105.38 92.94 L 106.50 92.94 L 107.38 93.94 L 108.25 92.94 L 109.38 93.94 L 110.25 92.94 L 111.06 93.25 L 110.94 94.50 L 111.94 95.25 L 111.94 96.50 L 113.94 98.12 L 113.94 98.62 L 113.12 99.06 L 112.94 99.62 L 114.94 100.25 L 114.94 101.50 L 115.94 102.25 L 115.94 103.50 L 116.94 104.25 L 116.94 105.50 L 118.94 107.12 L 118.94 107.62 L 118.12 108.06 L 117.94 108.62 L 118.25 108.94 L 119.62 108.94 L 119.94 110.50 L 121.94 112.25 L 121.94 115.50 L 124.94 118.25 L 124.94 119.50 L 125.81 120.00 L 125.94 120.62 L 127.06 121.25 L 126.94 122.50 L 127.94 123.25 L 127.94 124.50 L 128.94 125.25 L 128.94 126.50 L 130.94 128.25 L 130.94 129.50 L 131.94 130.25 L 131.94 131.50 L 133.94 133.25 L 133.94 134.50 L 134.94 135.25 L 134.94 136.50 L 135.94 137.25 L 135.94 138.50 L 137.94 140.25 L 137.94 142.50 L 138.94 143.25 L 138.94 144.50 L 139.94 145.25 L 139.94 146.50 L 140.38 146.94 L 141.50 146.81 L 141.94 147.12 L 141.94 147.62 L 140.94 148.62 L 143.94 151.25 L 143.94 153.50 L 145.94 155.25 L 145.94 156.50 L 146.94 157.25 L 146.94 158.50 L 147.38 158.94 L 148.94 159.25 L 148.94 160.50 L 150.06 161.75 L 149.94 163.50 L 150.38 163.94 L 151.94 164.25 L 151.94 166.50 L 153.94 168.25 L 153.94 170.50 L 154.38 170.94 L 155.50 170.81 L 155.94 171.12 L 154.94 172.62 L 155.25 172.94 L 156.62 172.94 L 156.94 174.50 L 158.94 176.25 L 158.94 177.50 L 159.94 178.25 L 159.94 179.50 L 160.94 180.25 L 160.94 181.50 L 162.94 183.25 L 162.94 184.50 L 163.94 185.25 L 163.94 187.50 L 165.94 189.25 L 165.94 190.50 L 167.94 192.25 L 167.94 193.50 L 168.94 194.25 L 168.94 195.50 L 170.94 197.25 L 170.94 198.50 L 171.94 199.25 L 171.94 200.50 L 172.94 201.25 L 172.94 202.50 L 174.94 204.25 L 174.94 205.50 L 175.94 206.25 L 175.94 207.50 L 176.94 208.25 L 176.94 209.50 L 178.94 211.25 L 178.94 212.50 L 180.06 213.75 L 179.94 215.50 L 180.38 215.94 L 181.94 216.25 L 181.94 217.50 L 182.94 218.25 L 182.94 219.50 L 184.94 221.25 L 184.94 222.50 L 185.94 223.25 L 185.94 224.50 L 186.94 225.25 L 186.94 226.50 L 187.94 227.25 L 187.94 228.50 L 189.94 230.25 L 189.94 231.50 L 190.94 232.25 L 190.94 233.50 L 191.94 234.25 L 191.94 235.50 L 193.94 237.12 L 193.94 237.62 L 192.94 238.62 L 194.75 239.06 L 195.94 240.25 L 195.94 242.50 L 197.94 244.25 L 197.94 245.50 L 199.94 247.25 L 199.94 249.50 L 201.94 251.25 L 201.94 252.50 L 202.94 253.25 L 202.94 254.50 L 203.94 255.25 L 203.94 257.50 L 204.94 258.25 L 204.94 259.50 L 205.38 259.94 L 206.75 260.06 L 207.94 261.25 L 207.94 262.50 L 208.94 263.25 L 208.94 264.50 L 210.94 266.12 L 210.94 266.62 L 210.12 267.06 L 209.94 267.62 L 211.94 268.25 L 211.94 269.50 L 212.94 270.25 L 212.94 271.50 L 213.94 272.25 L 213.94 274.50 L 214.38 274.94 L 215.94 275.25 L 215.94 276.50 L 216.94 277.25 L 216.94 278.50 L 218.94 280.25 L 218.94 281.50 L 220.06 282.62 L 219.81 283.75 L 218.94 284.38 L 218.94 286.62 L 216.94 288.38 L 216.94 289.62 L 215.94 290.38 L 215.94 291.62 L 213.94 293.38 L 213.94 294.62 L 212.94 295.38 L 212.94 296.62 L 211.94 297.38 L 211.94 298.62 L 208.94 301.38 L 208.94 302.62 L 206.75 304.81 L 205.25 305.06 L 204.62 305.94 Z" fill="#FA6628"/>
<path d="M 231.62 263.94 L 229.25 263.94 L 228.94 263.62 L 228.94 262.38 L 227.94 261.62 L 227.94 260.38 L 225.94 258.62 L 225.94 257.38 L 223.94 255.62 L 223.94 253.38 L 221.94 251.62 L 221.94 250.38 L 220.94 249.62 L 220.94 248.38 L 218.94 246.62 L 218.94 244.38 L 215.94 241.62 L 215.94 240.38 L 214.94 239.62 L 214.94 237.38 L 213.94 236.62 L 213.94 235.38 L 210.94 232.62 L 210.94 231.38 L 209.94 230.62 L 209.94 229.38 L 208.94 228.62 L 208.94 227.38 L 207.94 226.62 L 207.94 225.38 L 205.94 223.62 L 205.94 221.38 L 205.50 220.94 L 203.94 220.62 L 203.94 219.38 L 202.94 218.62 L 202.94 217.38 L 200.94 215.62 L 200.94 214.38 L 199.94 213.62 L 199.94 212.38 L 198.94 211.62 L 198.94 210.38 L 197.94 209.62 L 197.94 208.38 L 195.94 206.75 L 196.06 206.12 L 196.94 205.50 L 196.62 204.94 L 195.38 205.06 L 194.94 204.75 L 194.94 204.25 L 195.94 203.25 L 191.94 199.62 L 191.94 197.38 L 190.94 196.62 L 190.94 195.38 L 189.94 194.62 L 189.94 193.38 L 189.50 192.94 L 187.94 192.62 L 187.94 191.38 L 186.81 190.12 L 186.94 188.38 L 183.94 185.62 L 183.94 184.38 L 182.94 183.62 L 182.94 181.38 L 182.50 180.94 L 181.38 181.06 L 180.94 180.75 L 180.94 180.25 L 181.94 179.25 L 179.94 177.62 L 179.94 176.38 L 179.50 175.94 L 178.38 176.06 L 177.94 175.75 L 178.06 175.12 L 178.94 174.50 L 178.62 173.94 L 177.38 174.06 L 176.94 173.75 L 177.94 172.25 L 175.94 171.62 L 175.94 170.38 L 174.94 169.62 L 174.94 168.38 L 173.94 167.62 L 173.94 166.38 L 171.94 164.62 L 171.94 163.38 L 169.94 161.62 L 169.94 160.38 L 168.94 159.62 L 168.94 158.38 L 167.94 157.62 L 167.94 156.38 L 165.94 154.62 L 165.94 153.38 L 164.94 152.62 L 164.94 151.38 L 162.94 149.62 L 162.94 148.38 L 161.81 147.12 L 161.94 145.38 L 158.94 142.62 L 158.94 140.38 L 155.94 137.62 L 155.94 136.38 L 154.94 135.62 L 154.94 134.38 L 153.94 133.62 L 153.94 131.38 L 150.94 128.62 L 150.94 127.38 L 149.94 126.75 L 149.94 126.25 L 150.94 125.25 L 150.62 124.94 L 149.25 124.94 L 148.94 123.38 L 146.94 121.62 L 146.94 119.38 L 145.94 118.62 L 145.94 117.38 L 145.50 116.94 L 143.94 116.62 L 143.94 115.38 L 142.94 114.62 L 142.94 113.38 L 141.94 112.62 L 141.94 111.38 L 139.94 109.62 L 139.94 108.38 L 138.94 107.62 L 138.94 106.38 L 137.94 105.62 L 137.94 104.38 L 135.94 102.62 L 135.94 101.38 L 134.94 100.62 L 134.94 99.38 L 133.94 98.62 L 133.94 97.38 L 132.06 95.88 L 132.06 95.00 L 134.12 93.06 L 136.50 92.94 L 137.50 93.94 L 141.38 93.94 L 142.38 92.94 L 145.50 92.94 L 146.50 93.94 L 147.62 92.94 L 148.50 93.94 L 149.62 92.94 L 150.50 93.94 L 151.62 92.94 L 152.50 93.94 L 153.62 92.94 L 154.50 93.94 L 155.62 92.94 L 156.50 93.94 L 157.62 92.94 L 158.50 93.94 L 161.38 93.94 L 162.38 92.94 L 168.50 92.94 L 170.94 95.25 L 170.94 96.50 L 172.94 98.25 L 172.94 99.50 L 173.38 99.94 L 174.75 100.06 L 175.94 101.25 L 175.94 103.50 L 177.94 105.25 L 177.94 106.50 L 178.94 107.25 L 178.94 108.50 L 179.94 109.25 L 179.94 110.50 L 181.94 112.25 L 181.94 113.50 L 182.94 114.12 L 182.94 114.62 L 181.94 115.62 L 182.25 115.94 L 183.62 115.94 L 183.94 117.50 L 185.94 119.25 L 185.94 120.50 L 186.94 121.25 L 186.94 122.50 L 188.94 124.25 L 188.94 125.50 L 189.94 126.25 L 189.94 127.50 L 190.94 128.25 L 190.94 129.50 L 191.94 130.25 L 191.94 131.50 L 193.94 133.25 L 193.94 135.50 L 196.94 138.25 L 196.94 139.50 L 197.94 140.25 L 197.94 141.50 L 199.94 143.25 L 199.94 144.50 L 200.94 145.25 L 200.94 146.50 L 201.94 147.25 L 201.94 148.50 L 202.94 149.25 L 202.94 150.50 L 203.94 151.25 L 203.94 152.50 L 205.94 154.25 L 205.94 155.50 L 207.94 157.25 L 207.94 158.50 L 208.94 159.25 L 208.94 160.50 L 209.94 161.25 L 209.94 162.50 L 211.94 164.25 L 211.94 165.50 L 212.94 166.25 L 212.94 167.50 L 213.94 168.25 L 213.94 169.50 L 214.94 170.12 L 214.94 170.62 L 213.94 171.62 L 215.75 172.06 L 216.94 173.25 L 216.94 174.50 L 218.94 176.25 L 218.94 178.50 L 221.94 181.25 L 221.94 183.50 L 223.94 185.25 L 223.94 186.50 L 224.94 187.25 L 224.94 188.50 L 225.94 189.25 L 225.94 190.50 L 227.94 192.25 L 227.94 193.50 L 228.94 194.25 L 228.94 195.50 L 230.94 197.25 L 230.94 198.50 L 231.94 199.25 L 231.94 200.50 L 232.94 201.25 L 232.94 202.50 L 234.94 204.12 L 234.94 204.62 L 234.12 205.06 L 233.94 205.62 L 235.94 206.25 L 235.94 208.50 L 236.94 209.25 L 236.94 210.50 L 237.38 210.94 L 238.94 211.25 L 238.94 212.50 L 239.94 213.25 L 239.94 214.50 L 241.94 216.25 L 241.94 218.50 L 242.94 219.25 L 242.94 220.50 L 243.38 220.94 L 244.94 221.25 L 244.94 222.50 L 245.94 223.25 L 245.94 224.50 L 246.94 225.25 L 246.94 227.50 L 248.94 229.25 L 248.94 231.50 L 249.81 232.00 L 249.94 232.62 L 247.94 234.38 L 247.94 235.62 L 246.94 236.38 L 246.94 237.62 L 245.94 238.38 L 245.94 239.62 L 244.94 240.38 L 244.94 241.62 L 243.38 241.94 L 242.94 242.38 L 242.94 244.62 L 241.94 245.38 L 241.94 246.62 L 239.94 248.38 L 239.94 249.62 L 238.94 250.38 L 238.94 251.62 L 237.25 252.06 L 235.94 253.38 L 235.94 254.38 L 236.81 255.00 L 236.94 255.62 L 234.94 257.38 L 234.94 258.62 L 232.94 260.38 L 232.94 261.62 L 231.94 262.38 L 231.62 263.94 Z" fill="#FA6628"/>
<path d="M 231.50 159.94 L 230.38 159.94 L 228.94 158.62 L 228.94 157.38 L 225.94 154.62 L 225.94 152.38 L 222.94 149.75 L 222.94 149.25 L 223.75 148.81 L 223.94 148.25 L 221.94 147.62 L 221.94 145.38 L 218.94 142.62 L 218.94 140.38 L 215.94 137.62 L 215.94 136.38 L 214.94 135.62 L 214.94 134.38 L 213.94 133.62 L 213.94 131.38 L 210.94 128.75 L 210.94 128.25 L 211.94 127.50 L 210.94 126.62 L 210.94 126.12 L 211.38 125.81 L 212.50 125.94 L 212.94 125.50 L 212.94 124.25 L 214.81 122.75 L 214.94 122.38 L 213.94 121.62 L 213.94 121.12 L 214.94 120.50 L 214.94 119.25 L 215.94 118.50 L 215.94 117.25 L 217.50 116.94 L 217.94 116.50 L 217.94 115.25 L 219.81 113.75 L 219.81 113.12 L 218.94 112.62 L 218.94 112.12 L 220.94 110.50 L 220.94 109.25 L 222.94 108.62 L 221.94 107.12 L 222.38 106.81 L 223.50 106.94 L 223.94 106.50 L 223.94 104.25 L 224.94 103.50 L 224.94 102.25 L 225.94 101.50 L 225.81 100.25 L 226.62 99.94 L 227.38 100.94 L 227.94 100.62 L 227.94 97.25 L 229.94 95.50 L 230.25 93.94 L 232.38 93.94 L 233.38 92.94 L 236.50 92.94 L 237.50 93.94 L 240.38 93.94 L 241.25 92.94 L 242.38 93.94 L 243.25 92.94 L 244.38 93.94 L 245.25 92.94 L 246.38 93.94 L 247.25 92.94 L 248.38 93.94 L 249.25 92.94 L 250.38 93.94 L 251.25 92.94 L 252.38 93.94 L 253.25 92.94 L 254.38 93.94 L 255.38 92.94 L 257.50 92.94 L 258.50 93.94 L 261.38 93.94 L 262.38 92.94 L 265.50 92.94 L 266.50 93.94 L 267.62 93.94 L 267.94 94.25 L 267.94 96.62 L 266.94 97.38 L 266.94 98.62 L 264.94 100.38 L 264.94 101.62 L 263.94 102.38 L 263.94 103.62 L 262.94 104.38 L 262.94 105.62 L 261.94 106.38 L 261.94 107.62 L 260.94 108.38 L 260.94 109.62 L 258.94 111.38 L 258.94 112.62 L 257.94 113.38 L 257.94 114.62 L 256.38 114.94 L 255.94 115.38 L 255.94 117.62 L 254.94 118.38 L 254.94 119.62 L 253.94 120.38 L 253.94 121.62 L 251.94 123.38 L 251.94 124.62 L 250.94 125.38 L 250.94 126.62 L 249.94 127.38 L 249.94 128.62 L 246.94 131.38 L 246.94 133.62 L 245.94 134.38 L 245.94 135.62 L 244.94 136.38 L 244.94 137.62 L 242.94 139.38 L 242.94 140.62 L 241.94 141.38 L 241.94 142.62 L 239.94 144.38 L 239.94 145.62 L 238.94 146.38 L 238.94 147.62 L 236.94 149.38 L 236.94 150.62 L 235.94 151.38 L 235.94 152.62 L 232.94 155.38 L 232.94 157.62 L 231.94 158.38 L 231.94 159.50 L 231.50 159.94 Z" fill="#FA6628"/>
<path d="M 260.50 211.94 L 259.06 211.75 L 258.94 210.38 L 257.94 209.62 L 257.94 208.38 L 255.94 206.62 L 255.94 205.38 L 254.94 204.62 L 254.94 203.38 L 252.94 201.62 L 252.94 199.38 L 250.94 197.62 L 250.94 196.38 L 248.94 194.62 L 248.94 193.38 L 247.94 192.62 L 247.94 191.38 L 246.94 190.62 L 246.94 188.38 L 246.50 187.94 L 244.94 187.62 L 244.94 185.38 L 242.94 183.62 L 242.94 182.38 L 241.94 181.62 L 241.94 177.25 L 242.94 176.50 L 242.94 175.25 L 243.94 174.50 L 243.94 173.25 L 245.50 172.94 L 245.94 172.50 L 245.94 170.25 L 246.94 169.50 L 246.94 168.25 L 247.94 167.50 L 247.94 166.25 L 249.94 165.62 L 249.81 165.12 L 248.94 164.62 L 248.94 164.12 L 250.94 162.50 L 250.94 161.25 L 253.62 158.94 L 254.12 158.06 L 254.94 157.75 L 254.94 157.25 L 254.25 156.94 L 253.75 157.94 L 253.12 157.94 L 252.94 157.00 L 253.62 156.81 L 254.12 155.94 L 255.50 155.94 L 255.94 155.50 L 255.94 152.25 L 257.94 150.50 L 257.94 149.25 L 258.94 148.50 L 258.94 147.25 L 260.94 145.50 L 260.94 143.25 L 262.94 141.50 L 262.94 140.25 L 264.50 139.94 L 264.94 139.50 L 264.94 137.25 L 265.94 136.50 L 265.94 135.25 L 266.94 134.50 L 266.94 133.25 L 268.94 131.50 L 268.94 130.25 L 269.94 129.50 L 269.94 128.25 L 271.94 126.50 L 271.94 124.25 L 273.50 123.94 L 273.94 123.50 L 273.81 121.75 L 274.94 120.50 L 274.94 119.25 L 277.94 116.50 L 277.94 115.25 L 278.94 114.50 L 278.94 112.25 L 280.94 110.50 L 280.94 109.25 L 281.94 108.50 L 281.94 107.25 L 283.94 105.50 L 283.94 104.25 L 284.94 103.50 L 284.94 102.25 L 285.94 101.50 L 285.94 100.25 L 287.94 98.50 L 287.94 97.25 L 290.12 95.06 L 291.62 94.81 L 293.38 92.94 L 297.50 92.94 L 298.50 93.94 L 301.38 93.94 L 302.38 92.94 L 303.50 92.94 L 304.50 93.94 L 305.62 93.81 L 306.38 92.94 L 312.50 92.94 L 314.25 94.81 L 315.50 94.94 L 316.50 95.94 L 318.50 95.94 L 319.94 97.25 L 319.94 98.50 L 320.94 99.25 L 320.94 100.50 L 321.94 101.25 L 322.06 101.88 L 321.94 107.62 L 320.94 108.38 L 320.94 109.62 L 319.94 110.38 L 319.94 111.62 L 318.94 112.38 L 318.94 113.62 L 315.94 116.38 L 315.94 118.62 L 313.94 120.38 L 313.94 121.62 L 312.94 122.38 L 312.94 123.62 L 310.94 125.38 L 310.94 126.62 L 309.94 127.38 L 309.94 128.62 L 308.94 129.38 L 308.94 130.62 L 307.38 130.94 L 306.94 131.38 L 306.94 133.62 L 305.94 134.38 L 305.94 135.62 L 303.94 137.38 L 303.94 138.62 L 302.94 139.38 L 302.94 140.62 L 301.38 140.94 L 300.94 141.38 L 300.94 142.62 L 299.94 143.38 L 299.94 145.62 L 298.94 146.38 L 298.94 147.62 L 297.94 148.38 L 297.94 149.62 L 295.94 151.38 L 295.94 152.62 L 294.94 153.38 L 294.94 154.62 L 293.94 155.38 L 293.94 156.62 L 292.94 157.38 L 292.94 158.62 L 290.94 160.38 L 290.62 161.94 L 289.25 161.94 L 288.94 162.25 L 289.94 163.75 L 289.50 164.06 L 288.38 163.94 L 287.94 164.38 L 288.06 166.12 L 286.94 167.38 L 286.94 168.62 L 285.38 168.94 L 284.94 169.38 L 284.94 170.62 L 283.94 171.38 L 284.06 173.12 L 282.94 174.38 L 282.94 175.62 L 280.94 177.38 L 280.62 178.94 L 279.25 178.94 L 278.94 179.25 L 279.94 180.38 L 279.50 181.06 L 278.25 180.94 L 277.94 181.25 L 278.94 182.75 L 276.94 184.38 L 276.94 185.62 L 275.94 186.38 L 275.94 187.62 L 273.94 189.38 L 273.94 190.62 L 271.94 192.38 L 271.94 194.62 L 270.38 194.94 L 269.94 195.38 L 270.06 197.12 L 268.94 198.38 L 268.94 199.62 L 266.94 201.38 L 266.94 202.62 L 265.94 203.38 L 265.94 204.62 L 263.94 206.38 L 263.94 207.62 L 262.94 208.38 L 262.94 209.62 L 260.50 211.94 Z" fill="#FA6628"/>
</svg>